<svg width="620" height="430" viewBox="0 0 620 430" fill="none" xmlns="http://www.w3.org/2000/svg">
  <rect width="620" height="430" rx="18" fill="#DFF3FF"/>
  <rect x="36" y="28" width="548" height="374" rx="12" fill="white"/>
  <rect x="64" y="62" width="150" height="155" rx="6" fill="#BFA7FF"/>
  <rect x="235" y="62" width="150" height="155" rx="6" fill="#F4B6D8"/>
  <rect x="406" y="62" width="150" height="155" rx="6" fill="#C4B5FD"/>
  <rect x="64" y="238" width="150" height="92" rx="6" fill="#7DD3FC"/>
  <rect x="235" y="238" width="150" height="92" rx="6" fill="#DDD6FE"/>
  <rect x="406" y="238" width="150" height="92" rx="6" fill="#FDE68A"/>
  <circle cx="139" cy="139" r="36" fill="white" fill-opacity=".7"/>
  <circle cx="310" cy="139" r="34" fill="white" fill-opacity=".65"/>
  <path d="M468 160c36-12 52-46 36-68 37 22 42 70 8 91-19 12-42 7-44-23z" fill="white" fill-opacity=".75"/>
  <text x="64" y="364" fill="#12345A" font-family="Arial, Helvetica, sans-serif" font-size="30" font-weight="800">Magic Bean</text>
  <text x="64" y="388" fill="#73818D" font-family="Arial, Helvetica, sans-serif" font-size="16" font-weight="700">Graphic Design</text>
</svg>
