<svg width="620" height="430" viewBox="0 0 620 430" fill="none" xmlns="http://www.w3.org/2000/svg">
  <rect width="620" height="430" rx="18" fill="#DFF3FF"/>
  <rect x="34" y="30" width="552" height="370" rx="12" fill="white"/>
  <rect x="62" y="60" width="158" height="145" rx="6" fill="#22C55E"/>
  <rect x="238" y="60" width="150" height="145" rx="6" fill="#F59E0B"/>
  <rect x="406" y="60" width="150" height="145" rx="6" fill="#60A5FA"/>
  <rect x="62" y="228" width="158" height="106" rx="6" fill="#15803D"/>
  <rect x="238" y="228" width="150" height="106" rx="6" fill="#FDE68A"/>
  <rect x="406" y="228" width="150" height="106" rx="6" fill="#16A34A"/>
  <path d="M102 166h78v22h-78v-22zm16-48h46v48h-46v-48zm13-26h20v26h-20V92z" fill="white" fill-opacity=".78"/>
  <circle cx="313" cy="132" r="42" fill="white" fill-opacity=".72"/>
  <rect x="442" y="95" width="78" height="78" rx="14" fill="white" fill-opacity=".72"/>
  <text x="62" y="366" fill="#12345A" font-family="Arial, Helvetica, sans-serif" font-size="30" font-weight="800">Ponpen An-Najah</text>
  <text x="62" y="390" fill="#73818D" font-family="Arial, Helvetica, sans-serif" font-size="16" font-weight="700">Social Media Management</text>
</svg>
