<svg width="720" height="430" viewBox="0 0 720 430" fill="none" xmlns="http://www.w3.org/2000/svg">
  <rect width="720" height="430" rx="26" fill="#0A0F1E"/>
  <rect x="42" y="42" width="636" height="346" rx="24" fill="#FFFFFF" fill-opacity=".1" stroke="#08BBD8" stroke-opacity=".55" stroke-width="2"/>
  <path d="M118 278C183 111 316 106 370 223C419 330 536 319 604 153" stroke="#F43FE3" stroke-width="18" stroke-linecap="round"/>
  <path d="M118 310C183 143 316 138 370 255C419 362 536 351 604 185" stroke="#08BBD8" stroke-width="18" stroke-linecap="round" opacity=".75"/>
  <rect x="93" y="86" width="178" height="42" rx="21" fill="#FFFFFF" fill-opacity=".86"/>
  <rect x="93" y="145" width="238" height="20" rx="10" fill="#FFFFFF" fill-opacity=".38"/>
  <rect x="93" y="181" width="194" height="20" rx="10" fill="#FFFFFF" fill-opacity=".26"/>
  <rect x="467" y="284" width="160" height="54" rx="27" fill="#22C55E"/>
  <text x="497" y="318" fill="#FFFFFF" font-family="Arial, Helvetica, sans-serif" font-size="22" font-weight="800">CLIENT 03</text>
</svg>
